#!OML:ASF H:\Dans Jumps\Project 1\Capture day 1\Session 1\subject.ASF
:FULLY-SPECIFIED
:DEGREES
490
root 0.692794 17.6657 2.52545 8.305 -0.564138 -0.916664
lowerback -1.1468 -0.116798 -1.02996
upperback 1.08692 -0.165769 1.86752
thorax 1.76581 -0.108604 2.48995
lowerneck -12.8633 -0.380745 -1.80324
upperneck 24.669 -0.32865 0.832264
head 9.95819 -0.224733 0.557574
rclavicle -4.07509e-015 7.55382e-015
rhumerus -24.8112 -23.3146 -78.0106
rradius 18.9394
rwrist 45.9127
rhand -20.6888 -27.6198
rfingers 7.12502
rthumb 5.67477 -57.5238
lclavicle -4.07509e-015 7.55382e-015
lhumerus -23.4807 3.72206 89.003
lradius 12.51
lwrist 0.480479
lhand -24.9037 -4.56808
lfingers 7.12502
lthumb 1.60459 25.4056
rfemur -16.0001 -2.76038 19.2935
rtibia 25.687
rfoot -14.8224 -1.00883
rtoes 11.973
lfemur -14.3344 6.59206 -18.1609
ltibia 21.3034
lfoot -11.5802 5.26352
ltoes -3.82604
491
root 0.695942 17.6628 2.53748 8.26406 -0.531331 -0.921944
lowerback -1.18625 -0.139222 -1.00195
upperback 1.09478 -0.196339 1.8706
thorax 1.79751 -0.123907 2.4765
lowerneck -12.8636 -0.366944 -1.81564
upperneck 24.6218 -0.302636 0.818681
head 9.94095 -0.21528 0.557936
rclavicle -2.6339e-015 1.07344e-014
rhumerus -24.7184 -23.2497 -78.0713
rradius 18.9473
rwrist 45.8754
rhand -20.6836 -27.5665
rfingers 7.12502
rthumb 5.67986 -57.4704
lclavicle -2.6339e-015 1.07344e-014
lhumerus -23.4342 3.7046 89.0349
lradius 12.5012
lwrist 0.431182
lhand -24.8858 -4.59841
lfingers 7.12502
lthumb 1.62188 25.3752
rfemur -15.89 -2.75362 19.2799
rtibia 25.6684
rfoot -14.8865 -1.04162
rtoes 11.9494
lfemur -14.2926 6.57541 -18.1576
ltibia 21.3934
lfoot -11.6549 5.27215
ltoes -3.84455
492
root 0.69903 17.6598 2.54918 8.22819 -0.49101 -0.93247
lowerback -1.23072 -0.162223 -0.968643
upperback 1.10132 -0.227841 1.87606
thorax 1.83068 -0.139615 2.46246
lowerneck -12.8672 -0.35301 -1.82649
upperneck 24.5859 -0.276916 0.805646
head 9.9284 -0.205776 0.558229
rclavicle -1.44119e-015 1.63003e-014
rhumerus -24.641 -23.2151 -78.1115
rradius 18.9482
rwrist 45.8687
rhand -20.6872 -27.4984
rfingers 7.12502
rthumb 5.6764 -57.4024
lclavicle -1.44119e-015 1.63003e-014
lhumerus -23.3898 3.70501 89.0596
lradius 12.4988
lwrist 0.368315
lhand -24.848 -4.56705
lfingers 7.12502
lthumb 1.65837 25.4063
rfemur -15.7817 -2.75566 19.2736
rtibia 25.6432
rfoot -14.95 -1.07296
rtoes 11.9132
lfemur -14.2615 6.56112 -18.1497
ltibia 21.4883
lfoot -11.7315 5.27514
ltoes -3.86111
493
root 0.701837 17.657 2.56042 8.19637 -0.445283 -0.943244
lowerback -1.27646 -0.184796 -0.937038
upperback 1.10546 -0.25876 1.88207
thorax 1.86206 -0.155009 2.44991
lowerneck -12.8705 -0.340413 -1.83655
upperneck 24.5598 -0.253565 0.793666
head 9.91937 -0.197196 0.558503
rclavicle 2.33572e-015 -1.98785e-015
rhumerus -24.5819 -23.1751 -78.1424
rradius 18.9518
rwrist 45.8556
rhand -20.6857 -27.4423
rfingers 7.12502
rthumb 5.67776 -57.3462
lclavicle 2.33572e-015 -1.98785e-015
lhumerus -23.3536 3.7075 89.0806
lradius 12.4972
lwrist 0.290223
lhand -24.8199 -4.58266
lfingers 7.12502
lthumb 1.68549 25.3904
rfemur -15.6775 -2.75611 19.2696
rtibia 25.615
rfoot -15.0101 -1.11183
rtoes 11.8754
lfemur -14.2398 6.54974 -18.1414
ltibia 21.5864
lfoot -11.8068 5.27224
ltoes -3.88333
494
root 0.704238 17.6542 2.5711 8.16653 -0.396032 -0.955285
lowerback -1.31963 -0.20602 -0.907993
upperback 1.10662 -0.28784 1.88891
thorax 1.88883 -0.16945 2.43968
lowerneck -12.8746 -0.328464 -1.84453
upperneck 24.547 -0.231915 0.782828
head 9.91526 -0.189119 0.558664
rclavicle 6.4605e-016 7.55382e-015
rhumerus -24.5439 -23.1073 -78.1701
rradius 18.9658
rwrist 45.813
rhand -20.6747 -27.4032
rfingers 7.12502
rthumb 5.68841 -57.3068
lclavicle 6.4605e-016 7.55382e-015
lhumerus -23.3265 3.70116 89.1014
lradius 12.4992
lwrist 0.213724
lhand -24.8068 -4.64282
lfingers 7.12502
lthumb 1.69817 25.3302
rfemur -15.5766 -2.74742 19.2696
rtibia 25.5868
rfoot -15.0665 -1.16401
rtoes 11.8273
lfemur -14.2253 6.54297 -18.1306
ltibia 21.6869
lfoot -11.8779 5.26367
ltoes -3.91627
495
root 0.706163 17.6516 2.58122 8.13694 -0.346348 -0.967836
lowerback -1.35965 -0.225278 -0.883648
upperback 1.10628 -0.314218 1.89639
thorax 1.91219 -0.182558 2.43279
lowerneck -12.8756 -0.319217 -1.85394
upperneck 24.5419 -0.214347 0.774126
head 9.91342 -0.182844 0.559344
rclavicle -5.41688e-015 -3.97569e-015
rhumerus -24.526 -23.0113 -78.1953
rradius 18.9901
rwrist 45.7454
rhand -20.6527 -27.3825
rfingers 7.12502
rthumb 5.70962 -57.2856
lclavicle -5.41688e-015 -3.97569e-015
lhumerus -23.3057 3.68296 89.1231
lradius 12.4968
lwrist 0.135957
lhand -24.8318 -4.79113
lfingers 7.12502
lthumb 1.67404 25.1821
rfemur -15.4794 -2.72869 19.2727
rtibia 25.5603
rfoot -15.1185 -1.22658
rtoes 11.7864
lfemur -14.2146 6.54135 -18.1174
ltibia 21.7879
lfoot -11.9455 5.24912
ltoes -3.94796
496
root 0.707679 17.6491 2.59074 8.10729 -0.298377 -0.978516
lowerback -1.39714 -0.242181 -0.865961
upperback 1.10671 -0.337327 1.9034
thorax 1.93476 -0.194114 2.42926
lowerneck -12.8787 -0.311567 -1.86021
upperneck 24.5434 -0.199331 0.763885
head 9.91433 -0.177652 0.558666
rclavicle -1.68967e-015 -6.36111e-015
rhumerus -24.5228 -22.8997 -78.2175
rradius 19.0205
rwrist 45.6641
rhand -20.6233 -27.3751
rfingers 7.12502
rthumb 5.73808 -57.2774
lclavicle -1.68967e-015 -6.36111e-015
lhumerus -23.2823 3.6457 89.1473
lradius 12.4853
lwrist 0.0684861
lhand -24.8842 -5.01352
lfingers 7.12502
lthumb 1.62342 24.9601
rfemur -15.3862 -2.70293 19.2761
rtibia 25.5358
rfoot -15.1659 -1.29495
rtoes 11.754
lfemur -14.2064 6.54675 -18.1049
ltibia 21.8885
lfoot -12.0083 5.22835
ltoes -3.97806
497
root 0.708872 17.6469 2.59983 8.07698 -0.2532 -0.990802
lowerback -1.4339 -0.256312 -0.850042
upperback 1.10846 -0.356731 1.91045
thorax 1.95812 -0.203857 2.42686
lowerneck -12.8819 -0.305724 -1.86499
upperneck 24.55 -0.187418 0.754484
head 9.91716 -0.173677 0.557669
rclavicle 7.10655e-015 -1.11319e-014
rhumerus -24.5315 -22.7818 -78.2347
rradius 19.0504
rwrist 45.5746
rhand -20.5924 -27.3756
rfingers 7.12502
rthumb 5.76789 -57.277
lclavicle 7.10655e-015 -1.11319e-014
lhumerus -23.2558 3.58902 89.1746
lradius 12.4721
lwrist 0.0241906
lhand -24.9413 -5.24193
lfingers 7.12502
lthumb 1.56821 24.7321
rfemur -15.297 -2.67371 19.2827
rtibia 25.5153
rfoot -15.2101 -1.36417
rtoes 11.7268
lfemur -14.197 6.55728 -18.0892
ltibia 21.9853
lfoot -12.067 5.20319
ltoes -3.99659
498
root 0.709881 17.6447 2.60857 8.04546 -0.210114 -1.0021
lowerback -1.47102 -0.268528 -0.836916
upperback 1.11316 -0.373551 1.91665
thorax 1.98459 -0.212385 2.4252
lowerneck -12.8877 -0.301302 -1.8643
upperneck 24.5581 -0.177695 0.741007
head 9.92103 -0.170672 0.554056
rclavicle 2.48481e-015 -1.35174e-014
rhumerus -24.5483 -22.6851 -78.2405
rradius 19.0724
rwrist 45.5047
rhand -20.5664 -27.3743
rfingers 7.12502
rthumb 5.79299 -57.2751
lclavicle 2.48481e-015 -1.35174e-014
lhumerus -23.2286 3.53286 89.1989
lradius 12.4631
lwrist -0.0152721
lhand -24.9914 -5.4445
lfingers 7.12502
lthumb 1.51992 24.5298
rfemur -15.2098 -2.65048 19.2892
rtibia 25.4978
rfoot -15.2521 -1.42666
rtoes 11.6998
lfemur -14.1845 6.57069 -18.0742
ltibia 22.0773
lfoot -12.1217 5.17625
ltoes -4.01052
499
root 0.710779 17.6428 2.61683 8.01627 -0.168573 -1.00422
lowerback -1.50852 -0.279661 -0.833765
upperback 1.1184 -0.38865 1.91965
thorax 2.01179 -0.220177 2.42591
lowerneck -12.8953 -0.297361 -1.85741
upperneck 24.5656 -0.169079 0.723697
head 9.92507 -0.168036 0.547913
rclavicle -7.20594e-015 3.97569e-015
rhumerus -24.5735 -22.6071 -78.2361
rradius 19.0868
rwrist 45.4482
rhand -20.5453 -27.3734
rfingers 7.12502
rthumb 5.81336 -57.2736
lclavicle -7.20594e-015 3.97569e-015
lhumerus -23.2024 3.47109 89.2224
lradius 12.4603
lwrist -0.0357793
lhand -25.0171 -5.58263
lfingers 7.12502
lthumb 1.49504 24.3919
rfemur -15.129 -2.6364 19.2862
rtibia 25.4826
rfoot -15.2902 -1.47954
rtoes 11.6753
lfemur -14.1715 6.57968 -18.0693
ltibia 22.1612
lfoot -12.1703 5.15167
ltoes -4.01382
500
root 0.711508 17.6411 2.62457 7.98562 -0.128396 -1.012
lowerback -1.54051 -0.288339 -0.826033
upperback 1.1241 -0.400608 1.9238
thorax 2.03619 -0.226322 2.42534
lowerneck -12.9052 -0.293312 -1.84361
upperneck 24.5723 -0.160806 0.702172
head 9.92926 -0.165387 0.539075
rclavicle 4.57205e-015 -3.18055e-015
rhumerus -24.609 -22.5638 -78.2159
rradius 19.091
rwrist 45.4172
rhand -20.5317 -27.3679
rfingers 7.12502
rthumb 5.82652 -57.2678
lclavicle 4.57205e-015 -3.18055e-015
lhumerus -23.1797 3.4073 89.2449
lradius 12.4757
lwrist -0.0241333
lhand -25.0144 -5.61578
lfingers 7.12502
lthumb 1.49769 24.3587
rfemur -15.0492 -2.62637 19.2902
rtibia 25.4673
rfoot -15.3243 -1.52581
rtoes 11.6508
lfemur -14.1529 6.58245 -18.0573
ltibia 22.2348
lfoot -12.2125 5.13526
ltoes -4.01758
501
root 0.712112 17.6395 2.63186 7.95458 -0.0896453 -1.01981
lowerback -1.56886 -0.295818 -0.81916
upperback 1.13015 -0.410947 1.92767
thorax 2.05882 -0.231653 2.42501
lowerneck -12.9142 -0.289532 -1.8283
upperneck 24.5752 -0.153385 0.681057
head 9.9319 -0.162928 0.530008
rclavicle 4.52235e-015 -9.54166e-015
rhumerus -24.655 -22.5518 -78.1807
rradius 19.086
rwrist 45.4137
rhand -20.5194 -27.3583
rfingers 7.12502
rthumb 5.83834 -57.2578
lclavicle 4.52235e-015 -9.54166e-015
lhumerus -23.1611 3.33638 89.2675
lradius 12.504
lwrist 0.0199951
lhand -25.0013 -5.59794
lfingers 7.12502
lthumb 1.51031 24.3765
rfemur -14.9703 -2.62236 19.2949
rtibia 25.4497
rfoot -15.3538 -1.56513
rtoes 11.6267
lfemur -14.1281 6.57635 -18.0447
ltibia 22.2957
lfoot -12.2488 5.12862
ltoes -4.02655
502
root 0.712671 17.6382 2.63875 7.92207 -0.0546376 -1.03144
lowerback -1.59323 -0.301239 -0.809304
upperback 1.13664 -0.418639 1.93262
thorax 2.07954 -0.235614 2.42421
lowerneck -12.9183 -0.285395 -1.81219
upperneck 24.5715 -0.145998 0.660915
head 9.93126 -0.160272 0.52112
rclavicle -6.4605e-015 8.34896e-015
rhumerus -24.7102 -22.5702 -78.1305
rradius 19.0709
rwrist 45.4351
rhand -20.5092 -27.3426
rfingers 7.12502
rthumb 5.84822 -57.2419
lclavicle -6.4605e-015 8.34896e-015
lhumerus -23.148 3.26615 89.2889
lradius 12.5509
lwrist 0.0927284
lhand -24.9798 -5.51652
lfingers 7.12502
lthumb 1.53109 24.4577
rfemur -14.889 -2.62125 19.3041
rtibia 25.426
rfoot -15.3778 -1.59732
rtoes 11.6061
lfemur -14.0954 6.56201 -18.0276
ltibia 22.3445
lfoot -12.2816 5.13395
ltoes -4.03377
503
root 0.713143 17.6371 2.64524 7.88846 -0.0238267 -1.04755
lowerback -1.61503 -0.304696 -0.795437
upperback 1.14475 -0.423852 1.93831
thorax 2.10032 -0.238294 2.422
lowerneck -12.9201 -0.282314 -1.80005
upperneck 24.5612 -0.140584 0.64612
head 9.92779 -0.158253 0.514512
rclavicle 4.77083e-015 3.97569e-015
rhumerus -24.7725 -22.6134 -78.069
rradius 19.0473
rwrist 45.4771
rhand -20.4952 -27.3201
rfingers 7.12502
rthumb 5.86174 -57.2191
lclavicle 4.77083e-015 3.97569e-015
lhumerus -23.1363 3.18375 89.3112
lradius 12.6092
lwrist 0.202228
lhand -24.9685 -5.41857
lfingers 7.12502
lthumb 1.54203 24.5556
rfemur -14.8055 -2.62175 19.3189
rtibia 25.3955
rfoot -15.3987 -1.62425
rtoes 11.5915
lfemur -14.0544 6.54189 -18.0053
ltibia 22.3798
lfoot -12.3122 5.14988
ltoes -4.0339
